#define X11_16x16_width 16
#define X11_16x16_height 16
static char X11_16x16_bits[] = {
  0x1F, 0x40, 0x1E, 0x60, 0x3C, 0x30, 0x7C, 0x10, 0xF8, 0x08, 0xF0, 0x0C, 
  0xE0, 0x05, 0xE0, 0x03, 0xC0, 0x07, 0xE0, 0x07, 0x30, 0x0F, 0x10, 0x1F, 
  0x08, 0x1E, 0x0C, 0x3C, 0x06, 0x78, 0x02, 0xF8, };
