/* XPM */
static char *X11_16x16[] = {
/* columns rows colors chars-per-pixel */
"16 16 2 1 ",
"  c white",
". c black",
/* pixels */
".....         . ",
" ....        .. ",
"  ....      ..  ",
"  .....     .   ",
"   .....   .    ",
"    ....  ..    ",
"     .... .     ",
"     .....      ",
"      .....     ",
"     ......     ",
"    ..  ....    ",
"    .   .....   ",
"   .     ....   ",
"  ..      ....  ",
" ..        .... ",
" .         ....."
};
